<?xml version="1.0" encoding="utf-8"?>
<!-- Generator: Adobe Illustrator 25.0.0, SVG Export Plug-In . SVG Version: 6.00 Build 0)  -->
<svg version="1.1" id="Layer_1" xmlns="http://www.w3.org/2000/svg" xmlns:xlink="http://www.w3.org/1999/xlink" x="0px" y="0px"
	 viewBox="0 0 375 375" style="enable-background:new 0 0 375 375;" xml:space="preserve">
<style type="text/css">
	.st0{fill:#38B6FF;}
	.st1{clip-path:url(#SVGID_2_);}
	.st2{clip-path:url(#SVGID_4_);}
	.st3{clip-path:url(#SVGID_6_);}
	.st4{fill:#FFFFFF;}
</style>
<path class="st0" d="M190.1,68.7c-57.3,0-103.7,46.4-103.7,103.7s46.4,103.7,103.7,103.7s103.7-46.4,103.7-103.7
	S247.4,68.7,190.1,68.7z"/>
<g>
	<defs>
		<rect id="SVGID_1_" x="107" y="107" width="172" height="193"/>
	</defs>
	<clipPath id="SVGID_2_">
		<use xlink:href="#SVGID_1_"  style="overflow:visible;"/>
	</clipPath>
	<g class="st1">
		<g>
			<defs>
				
					<rect id="SVGID_3_" x="115.8" y="118.8" transform="matrix(0.9916 -0.1293 0.1293 0.9916 -25.0331 28.4564)" width="181.7" height="176.5"/>
			</defs>
			<clipPath id="SVGID_4_">
				<use xlink:href="#SVGID_3_"  style="overflow:visible;"/>
			</clipPath>
			<g class="st2">
				<g>
					<defs>
						
							<rect id="SVGID_5_" x="108.1" y="80.5" transform="matrix(0.9916 -0.1293 0.1293 0.9916 -22.5932 27.6914)" width="187.9" height="214.7"/>
					</defs>
					<clipPath id="SVGID_6_">
						<use xlink:href="#SVGID_5_"  style="overflow:visible;"/>
					</clipPath>
					<g class="st3">
						<path class="st4" d="M261.7,105.2c0.1,0,0.1,0,0.2,0c-0.1-0.1,0-0.1-0.3-0.1C261.7,105.2,261.7,105.2,261.7,105.2z
							 M129.4,142.1c0,0,0-0.1,0-0.1c-0.6-0.1-0.3-0.1-0.8,0.1C128.8,142.1,129.1,142,129.4,142.1z M117.1,144.4c0,0,0,0.1,0,0.1
							c0.4-0.1,0.8-0.1,1.1-0.1c0,0,0-0.1,0-0.1C117.9,144.3,117.5,144.4,117.1,144.4z M124.8,143.1c0-0.1,0-0.1,0-0.2
							c-0.8,0.1-1.6,0.2-2.3,0.3c0,0.1,0,0.1,0,0.2C123.2,143.3,124,143.2,124.8,143.1z M270.9,103.4c-1.6-0.1-3.1,0.1-4.6,0.7
							C267.9,104.2,269.4,104,270.9,103.4z M266.1,98.5c2.8,0.2,4.1,0,5.2-0.9C269.4,98,267.7,98.3,266.1,98.5z M117.9,146.6
							c0,0.1,0.1,0.3,0.1,0.4c8.3,0.2,59.6-15.3,64-16.6c0.4-0.1,0.8-0.2,0.9-0.9c-4,0.5-42.6,13-61.9,16.1
							C118.2,146.1,118.4,146.3,117.9,146.6z M192.6,127.1c4.9-0.9,70.4-20.8,80-20.6c1.8,0,1.8,2,0.1,2.2c-0.7,0.1-1.5-0.3-7.4,1.2
							c-30.1,7.8-69.9,19.1-72.8,20.2c-2.6,1-0.9,31.4-7.8,149.1c-0.3,4.4-0.5,6.3-2.6,11.2c-2,4.5-2.3,8-3.4,8.8
							c-0.9-0.2-1.2-1.1-1.9-1.6c-0.4-2.4-0.2-4.8,0-7.1c4.4-87.4,6.9-155.5,6.8-157.2c-1.4-0.6,2.3-1-45.4,12.4
							c-9.4,2.6-25.8,4.9-25.9,4.9c-1.1,0.8-2.2,0.3-3.3,0.1c-0.7-0.1-1.2-0.6-1.1-1.4c0.1-0.8-0.1-1.5,0.2-2.3
							c2.7-8.3-6.8-11.1,36.9-22.8c18.9-5.1,37.7-10.8,37.8-10.8c2.4-0.4,1.5-1.8,2.8-12.8c2.1-18,2.8-16.5,4.4-18.6
							c3.3,0.7,3.2-1,2.4,25.1c0,1,0,1.9,0.1,2.8c1.2,0.9-1.2,0.9,32.8-8.7c35.9-10.2,45.3-12.2,51.6-8.8c3.8,2.1-1.4,9.8-1.8,12.3
							c-0.1,0.7-0.6,1.1-1.3,1.2c-5.8,0.8,11.2-5.6-72.1,18.1c-2.3,0.7-4.7,1.3-7,2c-0.7,0.2-1.3,0.5-2,0.8
							C192.5,126.8,192.5,126.9,192.6,127.1"/>
					</g>
				</g>
			</g>
		</g>
	</g>
</g>
</svg>
