<?xml version="1.0" encoding="UTF-8"?><svg xmlns="http://www.w3.org/2000/svg" xmlns:xlink="http://www.w3.org/1999/xlink" contentScriptType="text/ecmascript" width="375" zoomAndPan="magnify" contentStyleType="text/css" viewBox="0 0 375 374.999991" height="374.999991" preserveAspectRatio="xMidYMid meet" version="1.0"><defs><clipPath id="clip-0"><path d="M 107 107 L 279 107 L 279 300 L 107 300 Z M 107 107 " clip-rule="nonzero"/></clipPath><clipPath id="clip-1"><path d="M 105.183594 131.273438 L 285.34375 107.785156 L 308.164062 282.828125 L 128.003906 306.3125 Z M 105.183594 131.273438 " clip-rule="nonzero"/></clipPath><clipPath id="clip-2"><path d="M 94.972656 93.5625 L 281.277344 69.273438 L 309.035156 282.191406 L 122.730469 306.476562 Z M 94.972656 93.5625 " clip-rule="nonzero"/></clipPath></defs><rect x="-37.5" width="450" fill="rgb(100%, 100%, 100%)" y="-37.499999" height="449.999989" fill-opacity="1"/><rect x="-37.5" width="450" fill="rgb(100%, 100%, 100%)" y="-37.499999" height="449.999989" fill-opacity="1"/><path fill="rgb(0%, 0%, 0%)" d="M 190.078125 68.695312 C 132.78125 68.695312 86.332031 115.144531 86.332031 172.441406 C 86.332031 229.738281 132.78125 276.1875 190.078125 276.1875 C 247.375 276.1875 293.824219 229.738281 293.824219 172.441406 C 293.824219 115.144531 247.375 68.695312 190.078125 68.695312 Z M 190.078125 68.695312 " fill-opacity="1" fill-rule="nonzero"/><g clip-path="url(#clip-0)"><g clip-path="url(#clip-1)"><g clip-path="url(#clip-2)"><path fill="rgb(100%, 100%, 100%)" d="M 261.734375 105.230469 C 261.800781 105.214844 261.867188 105.207031 261.933594 105.1875 C 261.863281 105.054688 261.941406 105.0625 261.675781 105.113281 C 261.699219 105.152344 261.710938 105.191406 261.734375 105.230469 Z M 129.355469 142.054688 C 129.351562 142.011719 129.351562 141.96875 129.347656 141.929688 C 128.796875 141.867188 129.011719 141.828125 128.523438 142.050781 C 128.796875 142.050781 129.074219 142.046875 129.355469 142.054688 Z M 117.132812 144.421875 C 117.136719 144.457031 117.140625 144.488281 117.148438 144.53125 C 117.53125 144.480469 117.914062 144.429688 118.296875 144.382812 C 118.292969 144.339844 118.277344 144.308594 118.273438 144.273438 C 117.898438 144.324219 117.515625 144.375 117.132812 144.421875 Z M 124.761719 143.089844 C 124.773438 143.03125 124.789062 142.976562 124.808594 142.917969 C 124.03125 143.019531 123.257812 143.117188 122.484375 143.21875 C 122.484375 143.277344 122.488281 143.328125 122.496094 143.386719 C 123.246094 143.289062 124.003906 143.191406 124.761719 143.089844 Z M 270.890625 103.449219 C 269.3125 103.367188 267.773438 103.574219 266.28125 104.105469 C 267.855469 104.164062 269.390625 103.980469 270.890625 103.449219 Z M 266.109375 98.546875 C 268.886719 98.726562 270.21875 98.5 271.304688 97.660156 C 269.375 97.988281 267.742188 98.265625 266.109375 98.546875 Z M 117.878906 146.636719 C 117.921875 146.773438 117.964844 146.910156 118.015625 147.046875 C 126.332031 147.273438 177.621094 131.753906 182.027344 130.449219 C 182.417969 130.328125 182.808594 130.203125 182.882812 129.535156 C 178.902344 130.054688 140.253906 142.582031 121.003906 145.664062 C 118.207031 146.113281 118.40625 146.316406 117.878906 146.636719 Z M 192.566406 127.117188 C 197.460938 126.242188 262.9375 106.339844 272.585938 106.523438 C 274.414062 106.554688 274.421875 108.5625 272.660156 108.714844 C 271.949219 108.773438 271.128906 108.382812 265.25 109.910156 C 235.105469 117.734375 195.316406 129.050781 192.484375 130.113281 C 189.921875 131.070312 191.578125 161.519531 184.664062 279.167969 C 184.40625 283.570312 184.160156 285.515625 182.042969 290.378906 C 180.085938 294.882812 179.734375 298.339844 178.648438 299.1875 C 177.75 298.976562 177.40625 298.050781 176.71875 297.632812 C 176.367188 295.210938 176.554688 292.867188 176.675781 290.539062 C 181.121094 203.183594 183.550781 135.054688 183.449219 133.339844 C 182.082031 132.757812 185.746094 132.332031 138.007812 145.714844 C 128.601562 148.351562 112.171875 150.566406 112.0625 150.640625 C 110.957031 151.402344 109.863281 150.9375 108.792969 150.695312 C 108.121094 150.558594 107.609375 150.082031 107.703125 149.3125 C 107.808594 148.539062 107.640625 147.785156 107.90625 146.96875 C 110.589844 138.691406 101.058594 135.910156 144.800781 124.117188 C 163.71875 119.019531 182.453125 113.367188 182.632812 113.324219 C 185 112.875 184.101562 111.574219 185.394531 100.492188 C 187.476562 82.539062 188.160156 84.035156 189.792969 81.847656 C 193.066406 82.535156 192.976562 80.816406 192.21875 106.90625 C 192.191406 107.871094 192.257812 108.824219 192.277344 109.699219 C 193.433594 110.566406 191.082031 110.597656 225.042969 100.992188 C 260.960938 90.835938 270.363281 88.742188 276.691406 92.242188 C 280.507812 94.351562 275.269531 102.066406 274.921875 104.542969 C 274.8125 105.273438 274.292969 105.636719 273.578125 105.726562 C 267.730469 106.515625 284.824219 100.171875 201.457031 123.816406 C 199.117188 124.476562 196.785156 125.152344 194.460938 125.851562 C 193.78125 126.046875 193.144531 126.359375 192.484375 126.613281 C 192.515625 126.777344 192.535156 126.945312 192.566406 127.117188 " fill-opacity="1" fill-rule="nonzero"/></g></g></g></svg>